# File created by Blade
# Date/Time:  Thu Sep 25 17:43:48 2014
# Frame Rate: 120.000 fps
#------------------------------------------------------
:FULLY-SPECIFIED
:DEGREES
427
root -20.035544 32.931861 -6.205697 -353.241900 16.330386 -1.053615
Spine 0.779810 7.986345 -0.081820
Head 18.543578 17.866030 11.119659
LeftShoulder -17.708606 18.061457 27.184477
LeftArm 24.253079 -21.643089 -24.075181
LeftForeArm 7.745963 0.000000 13.178584
LeftHand -29.564413 -0.000000 2.645709
LeftHandThumb1 -26.253704 0.000000 33.147579
RightShoulder -18.756354 12.298388 -38.871821
RightArm -11.583594 6.115977 34.085381
RightForeArm -27.553397 -0.000000 18.798764
RightHand -15.932408 -0.000000 1.935936
RightHandThumb1 -24.326973 -0.000000 -32.862282
LeftUpLeg -4.746471 -11.020871 0.467299
LeftLeg -2.348607 -0.000000 0.000000
LeftFoot -13.524185 13.134141 335.655020
LeftToeBase 6.265881 -0.000000 -0.000000
RightUpLeg -6.426072 -12.937951 3.302655
RightLeg 5.405409 -0.000000 -0.000000
RightFoot -10.080152 -5.254949 -5.495747
RightToeBase 2.323361 -0.000000 -0.000000
428
root -20.032849 32.931742 -6.212365 -353.188682 16.336415 -1.071445
Spine 0.869161 7.951358 -0.102507
Head 18.650358 17.601495 11.104777
LeftShoulder -17.752141 18.184601 27.082156
LeftArm 24.505675 -22.034895 -24.254463
LeftForeArm 7.779548 -0.000000 13.262833
LeftHand -29.719499 0.000000 2.825077
LeftHandThumb1 -26.253704 0.000000 33.147579
RightShoulder -18.798730 12.263726 -38.831227
RightArm -11.563649 6.160757 34.129476
RightForeArm -27.537423 -0.000000 18.841449
RightHand -15.416427 -0.000000 2.033692
RightHandThumb1 -24.326973 -0.000000 -32.862282
LeftUpLeg -4.779399 -10.923834 0.484188
LeftLeg -2.416035 -0.000000 0.000000
LeftFoot -13.495385 13.006667 335.569474
LeftToeBase 6.320778 -0.000000 -0.000000
RightUpLeg -6.480436 -13.047900 3.333243
RightLeg 5.374059 -0.000000 -0.000000
RightFoot -10.071001 -5.135524 -5.479977
RightToeBase 2.355584 -0.000000 -0.000000
429
root -20.031986 32.930998 -6.219308 -353.127642 16.321797 -1.090318
Spine 0.963896 7.907759 -0.136745
Head 18.669739 17.342373 11.034392
LeftShoulder -17.656338 18.055873 27.117181
LeftArm 24.262964 -21.891480 -24.169862
LeftForeArm 7.753644 -0.000000 13.492605
LeftHand -29.581911 -0.000000 3.037873
LeftHandThumb1 -26.253704 0.000000 33.147579
RightShoulder -18.822377 12.275134 -38.840958
RightArm -11.597003 6.170792 34.237516
RightForeArm -27.546983 -0.000000 18.908829
RightHand -15.453213 -0.000000 1.985400
RightHandThumb1 -24.326973 -0.000000 -32.862282
LeftUpLeg -4.813371 -10.879624 0.511712
LeftLeg -2.501560 -0.000000 0.000000
LeftFoot -13.478996 12.949192 335.486693
LeftToeBase 6.346030 -0.000000 -0.000000
RightUpLeg -6.531184 -13.087541 3.358547
RightLeg 5.317894 -0.000000 -0.000000
RightFoot -10.046283 -5.038362 -5.426709
RightToeBase 2.372885 -0.000000 -0.000000
430
root -20.028025 32.930907 -6.226409 -353.094736 16.300479 -1.098159
Spine 1.088558 7.860860 -0.170630
Head 18.731267 17.128926 11.024232
LeftShoulder -17.655140 18.283321 27.105372
LeftArm 24.412823 -22.593758 -24.639830
LeftForeArm 8.427374 -0.000000 13.775427
LeftHand -29.619469 -0.000000 2.855217
LeftHandThumb1 -26.253704 0.000000 33.147579
RightShoulder -18.819642 12.297400 -38.803035
RightArm -11.595158 6.160401 34.286309
RightForeArm -27.551664 -0.000000 18.930713
RightHand -15.321092 -0.000000 1.985159
RightHandThumb1 -24.326973 -0.000000 -32.862282
LeftUpLeg -4.846178 -10.757970 0.502838
LeftLeg -2.488182 -0.000000 0.000000
LeftFoot -13.355694 12.793421 335.699633
LeftToeBase 6.060444 -0.000000 -0.000000
RightUpLeg -6.556199 -13.099977 3.361811
RightLeg 5.273794 -0.000000 -0.000000
RightFoot -10.010471 -4.998968 -5.415935
RightToeBase 2.327864 -0.000000 -0.000000
